<?xml version="1.0" standalone="no"?>
<!DOCTYPE svg PUBLIC "-//W3C//DTD SVG 20010904//EN"
 "http://www.w3.org/TR/2001/REC-SVG-20010904/DTD/svg10.dtd">
<svg version="1.0" xmlns="http://www.w3.org/2000/svg"
 width="1080.000000pt" height="1080.000000pt" viewBox="0 0 1080.000000 1080.000000"
 preserveAspectRatio="xMidYMid meet">
<metadata>
Created by potrace 1.14, written by Peter Selinger 2001-2017
</metadata>
<g transform="translate(0.000000,1080.000000) scale(0.100000,-0.100000)"
fill="#000000" stroke="none">
<path d="M5128 10795 c-1 -1 -46 -6 -98 -9 -148 -10 -276 -22 -370 -37 -36 -6
-83 -13 -105 -16 -50 -6 -328 -61 -375 -73 -19 -5 -46 -11 -60 -13 -103 -18
-495 -143 -690 -219 -236 -93 -609 -273 -740 -357 -47 -30 -65 -41 -104 -62
-21 -11 -44 -25 -50 -30 -6 -5 -60 -41 -121 -80 -168 -110 -403 -288 -571
-434 -95 -83 -426 -414 -505 -505 -85 -99 -140 -166 -228 -280 -28 -36 -55
-70 -61 -77 -5 -7 -10 -16 -10 -22 0 -5 -4 -11 -8 -13 -23 -9 -268 -390 -362
-563 -62 -113 -172 -336 -210 -425 -17 -41 -38 -88 -45 -105 -63 -141 -211
-579 -240 -708 -2 -12 -9 -42 -16 -67 -6 -25 -12 -49 -13 -55 -2 -5 -6 -21 -9
-35 -4 -14 -9 -36 -11 -50 -3 -14 -16 -81 -29 -150 -14 -69 -28 -143 -31 -165
-11 -76 -25 -180 -31 -240 -4 -33 -8 -71 -11 -85 -11 -73 -19 -276 -19 -530 0
-333 8 -445 51 -765 62 -459 230 -1030 430 -1465 130 -282 359 -682 486 -852
7 -9 20 -26 28 -38 27 -40 143 -194 172 -230 16 -19 32 -39 36 -45 13 -17 187
-218 221 -255 76 -83 195 -202 291 -290 56 -52 108 -100 114 -105 51 -48 225
-189 336 -271 456 -341 959 -605 1501 -789 92 -30 175 -58 185 -60 11 -2 60
-16 109 -30 93 -27 115 -33 150 -40 11 -3 70 -16 130 -29 106 -24 357 -68 460
-81 28 -3 64 -8 80 -10 267 -36 845 -41 1139 -10 115 12 133 14 171 20 22 3
54 7 70 10 17 3 48 7 70 10 34 5 155 27 230 41 35 7 141 30 170 37 11 3 52 13
90 22 39 9 91 23 116 31 25 8 54 16 65 18 10 2 78 23 149 47 72 24 132 44 135
44 3 1 12 4 20 8 8 3 49 18 90 33 245 90 609 263 830 396 186 111 235 142 238
151 2 4 10 7 17 7 7 0 15 3 17 8 2 4 35 28 73 55 117 80 279 199 300 221 6 6
46 40 90 76 206 168 479 438 651 645 32 39 61 72 65 75 15 12 238 314 299 405
177 264 322 527 452 820 37 83 72 164 79 180 71 187 117 320 164 475 31 103
86 315 99 380 3 14 14 71 25 127 23 114 57 328 66 418 4 33 8 76 11 95 26 218
25 878 -1 1043 -2 12 -6 49 -10 82 -10 96 -15 139 -19 160 -6 34 -16 98 -20
130 -6 43 -53 271 -81 390 -29 125 -127 454 -145 487 -6 10 -10 23 -10 29 0
14 -119 315 -165 414 -44 96 -194 396 -205 410 -4 6 -20 33 -35 60 -123 223
-387 601 -560 800 -15 17 -45 52 -68 78 -124 144 -354 374 -493 494 -27 23
-62 54 -79 68 -16 15 -91 74 -165 131 -74 57 -141 109 -148 115 -7 5 -67 48
-135 93 -312 213 -672 404 -1017 544 -230 92 -579 205 -739 238 -12 3 -53 12
-90 20 -74 18 -74 18 -186 40 -44 8 -96 17 -115 20 -19 2 -60 9 -90 14 -30 5
-79 12 -109 15 -30 4 -62 8 -72 10 -10 2 -58 7 -106 10 -48 4 -101 9 -118 12
-34 5 -661 13 -667 8z"/>
</g>
</svg>
